<svg xmlns="http://www.w3.org/2000/svg" width="73.3" height="16.6" viewBox="743.5 358.801 73.3 16.6"><path class="rga-logo__text" d="M772.48 364.04c0 1.6-.84 2.24-2.4 2.24h-3.84v-4.44h3.84c1.56.04 2.4.68 2.4 2.2m1 3.52c1.76-.76 2.52-2.16 2.52-4 0-2.4-1.84-4.4-4.64-4.4h-8.56v15.882h3.48v-6.2h3.478c1.76 0 2.4.72 2.64 2.4.2 1.28.16 2.84.56 3.76h3.48c-.6-.92-.6-2.76-.68-3.76-.078-1.6-.598-3.24-2.28-3.68m6.402 7.44l5.92-15.882h-2.52L777.36 375h2.52zm18.12 0h2.24v-8.562h-6.64v2.6h3.48c-.2 2.2-1.52 3.44-3.76 3.44-3.16 0-4.28-2.68-4.28-5.32 0-2.76 1.2-5.44 4.28-5.44 1.6 0 2.96.92 3.36 2.68h3.36c-.4-3.6-3.44-5.6-6.682-5.6-4.92 0-7.8 3.68-7.8 8.36 0 4.6 2.88 8.24 7.8 8.24 1.52 0 3.16-.6 4.36-2.16L798 375zm13.08-6.12h-4.12l2.08-5.84h.04l2 5.84zm5.72 6.12l-5.92-15.882h-3.6l-6 15.88h3.52l1.24-3.52h5.92l1.2 3.52h3.64z"></path><path fill="#CE2434" d="M743.5 359.1h16v16h-16z"></path></svg>